<?xml version="1.0" encoding="UTF-8"?>
<svg xmlns="http://www.w3.org/2000/svg" xmlns:xlink="http://www.w3.org/1999/xlink" width="24px" height="25px" viewBox="0 0 24 25" version="1.1">
    <!-- Generator: Sketch 51.1 (57501) - http://www.bohemiancoding.com/sketch -->
    <title>001 - Facebook</title>
    <desc>Created with Sketch.</desc>
    <defs/>
    <g id="Page-1" stroke="none" stroke-width="1" fill="none" fill-rule="evenodd">
        <g id="001---Facebook" fill-rule="nonzero">
            <g id="Icons" transform="translate(1.000000, 1.000000)">
                <rect id="Rectangle-path" fill="#6FC1EF" x="0" y="0.009" width="22" height="22" rx="2"/>
                <path d="M16,8 L17,8 C17.5522847,8 18,7.55228475 18,7 L18,5 C18,4.44771525 17.5522847,4 17,4 L16,4 C12.6862915,4 10,6.6862915 10,10 C10,10.5522847 9.55228475,11 9,11 L8,11 C7.44771525,11 7,11.4477153 7,12 L7,14 C7,14.5522847 7.44771525,15 8,15 L9,15 C9.55228475,15 10,15.4477153 10,16 L10,22 L14,22 L14,16 C14,15.4477153 14.4477153,15 15,15 L16,15 C16.5522847,15 17,14.5522847 17,14 L17,12 C17,11.4477153 16.5522847,11 16,11 L15,11 C14.4477153,11 14,10.5522847 14,10 C14,8.8954305 14.8954305,8 16,8 Z" id="Shape" fill="#F4F4F4"/>
            </g>
            <g id="Outline" fill="#40464C">
                <path d="M3,24.009 L21,24.009 C22.6568542,24.009 24,22.6658542 24,21.009 L24,3.009 C24,1.35214575 22.6568542,0.009 21,0.009 L3,0.009 C1.34314575,0.009 2.02906125e-16,1.35214575 0,3.009 L0,7.009 C6.76353751e-17,7.56128475 0.44771525,8.009 1,8.009 C1.55228475,8.009 2,7.56128475 2,7.009 L2,3.009 C2,2.45671525 2.44771525,2.009 3,2.009 L21,2.009 C21.5522847,2.009 22,2.45671525 22,3.009 L22,21.009 C22,21.5612847 21.5522847,22.009 21,22.009 L3,22.009 C2.44771525,22.009 2,21.5612847 2,21.009 L2,13.009 C2,12.4567153 1.55228475,12.009 1,12.009 C0.44771525,12.009 6.76353751e-17,12.4567153 0,13.009 L0,21.009 C2.02906125e-16,22.6658542 1.34314575,24.009 3,24.009 Z" id="Shape"/>
            </g>
        </g>
    </g>
</svg>
